<?xml version="1.0" encoding="utf-8"?>
<!-- Generator: Adobe Illustrator 24.1.0, SVG Export Plug-In . SVG Version: 6.00 Build 0)  -->
<svg version="1.1" id="Capa_1" xmlns="http://www.w3.org/2000/svg" xmlns:xlink="http://www.w3.org/1999/xlink" x="0px" y="0px"
	 viewBox="0 0 370.8 362.01" style="enable-background:new 0 0 370.8 362.01;" xml:space="preserve">
<style type="text/css">
	.st0{fill:#26A6DF;}
</style>
<g>
	<g>
		<path class="st0" d="M329.57,195.13c-8.03,73.8-70.5,131.26-146.44,131.26c-81.38,0-147.36-65.97-147.36-147.36
			S101.75,31.67,183.14,31.67c75.94,0,138.41,57.45,146.44,131.26h27.47C348.92,74.01,274.18,4.35,183.14,4.35
			C86.67,4.35,8.46,82.56,8.46,179.03S86.67,353.7,183.14,353.7c91.04,0,165.78-69.66,173.91-158.58H329.57z"/>
		<rect x="271.48" y="195.11" class="st0" width="71.07" height="28.27"/>
	</g>
	<g>
		<path class="st0" d="M65.31,165.4l28.56,0.09c1.37-9.02,4.06-17.59,7.91-25.52l-30.51-0.1C68.39,148.02,66.33,156.54,65.31,165.4z
			"/>
		<path class="st0" d="M99.95,214.26c-3.42-7.99-5.69-16.58-6.66-25.56l-28.34-0.09c0.71,8.82,2.32,17.39,4.87,25.56L99.95,214.26z"
			/>
		<path class="st0" d="M82.41,116.7l25.03,0.08l-0.04,13.17c16.09-24.57,43.85-40.81,75.41-40.7c49.58,0.16,89.65,40.49,89.48,90.07
			c-0.16,49.58-40.49,89.65-90.07,89.49c-31.56-0.1-59.21-16.51-75.14-41.19l-0.03,9.88l-27.03-0.09
			c20.26,35.49,58.32,59.52,102.12,59.66c65.19,0.21,118.21-52.46,118.42-117.65c0.21-65.19-52.46-118.21-117.65-118.42
			C140.48,60.85,103.33,83.18,82.41,116.7z"/>
	</g>
	<path class="st0" d="M205.3,220.79v-83.52h28.21c-12.05-14.63-30.31-23.97-50.75-23.97c-21.61,0-40.72,10.47-52.7,26.57h30.16
		v83.52h-25.85c12.02,13.1,29.22,21.36,48.4,21.36c20.44,0,38.7-9.33,50.76-23.97H205.3z"/>
</g>
</svg>
